PathFileType	4	(X/Y/Z)	s02c0401.trc
DataRate	CameraRate	NumFrames	NumMarkers	Units	OrigDataRate	OrigDataStartFrame	OrigNumFrames
200	200	5	50	mm	200	1000	2000
Frame#	Time	racr			lacr			c7			jug			rlel			rdr			llel			ldr			s2			lic			ric			lasi			rasi			rpsi			lpsi			rgt			lgt			rth1			rth2			rth3			rth4			rlfc			rmfc			rsh1			rsh2			rsh3			rsh4			rlmal			rmmal			rtoe			rmt5			rmt1			lth1			lth2			lth4			lth3			llfc			lmfc			lsh1			lsh2			lsh3			lsh4			llmal			lmmal			lcal			ltoe			lmt5			SBIKE			LBIKE			RBIKE			
		X1	Y1	Z1	X2	Y2	Z2	X3	Y3	Z3	X4	Y4	Z4	X5	Y5	Z5	X6	Y6	Z6	X7	Y7	Z7	X8	Y8	Z8	X9	Y9	Z9	X10	Y10	Z10	X11	Y11	Z11	X12	Y12	Z12	X13	Y13	Z13	X14	Y14	Z14	X15	Y15	Z15	X16	Y16	Z16	X17	Y17	Z17	X18	Y18	Z18	X19	Y19	Z19	X20	Y20	Z20	X21	Y21	Z21	X22	Y22	Z22	X23	Y23	Z23	X24	Y24	Z24	X25	Y25	Z25	X26	Y26	Z26	X27	Y27	Z27	X28	Y28	Z28	X29	Y29	Z29	X30	Y30	Z30	X31	Y31	Z31	X32	Y32	Z32	X33	Y33	Z33	X34	Y34	Z34	X35	Y35	Z35	X36	Y36	Z36	X37	Y37	Z37	X38	Y38	Z38	X39	Y39	Z39	X40	Y40	Z40	X41	Y41	Z41	X42	Y42	Z42	X43	Y43	Z43	X44	Y44	Z44	X45	Y45	Z45	X46	Y46	Z46	X47	Y47	Z47	X48	Y48	Z48	X49	Y49	Z49	X50	Y50	Z50	
1000	5.0000	799.421405	1185.095304	-171.321116	796.101809	1184.474325	-537.621841	813.435890	1247.629752	-363.008805	741.225014	1125.076857	-370.896938	611.523276	1028.723996	-54.276076	714.314554	883.015312	-128.903924	575.287236	1022.567521	-638.528463	699.944230	890.499363	-528.920735	253.589860	1195.736730	-307.919189	363.811417	1181.974854	-467.126338	398.677926	1154.145703	-184.086979	396.569965	1140.844842	-444.530401	431.309691	1109.567189	-215.234291	297.259997	1230.195184	-261.907475	293.899579	1243.186976	-342.783049	339.889414	1068.231098	-149.425722	302.305254	1116.450165	-501.104705	376.067710	976.966768	-146.839512	408.696507	894.912982	-151.230572	402.933086	810.972157	-132.347987	436.557579	896.937029	-177.877658	391.779064	671.877066	-168.293400	364.906244	659.813055	-272.583578	346.624282	576.906054	-143.098007	321.753474	492.097245	-157.746372	265.230433	428.166077	-146.601485	331.076609	488.145094	-195.717289	194.776372	327.819809	-146.505791	207.509553	337.800038	-228.232907	297.526146	120.422754	-193.572785	216.940387	191.332628	-133.248952	239.298592	181.201842	-241.398269	415.851021	1036.539194	-517.531397	494.421918	999.308224	-519.070772	516.543922	1024.861992	-501.990030	544.668490	925.906510	-522.605992	618.775331	853.991075	-507.643553	621.791328	829.150069	-395.179473	569.870220	767.652364	-518.966780	521.753297	698.132156	-498.774723	441.454244	656.626124	-502.007728	536.090893	687.644275	-461.763794	344.188529	591.067507	-485.254256	359.376058	585.735018	-406.118306	258.945744	571.525474	-444.822998	515.158345	442.363459	-445.194457	410.165290	463.709606	-508.319234	-164.902151	858.357425	-315.373568	32.982366	82.426179	-515.259208	33.050963	82.298539	-115.081310	
1001	5.0050	800.900632	1183.801129	-173.600753	794.916966	1182.786166	-539.605714	813.956681	1246.313185	-365.381259	740.951178	1124.206623	-372.802298	612.641441	1029.336540	-54.753191	714.362884	882.819107	-129.125044	573.633318	1021.647513	-639.477154	699.384354	890.818172	-529.466785	254.470338	1198.427851	-308.111794	364.680327	1183.018948	-467.094363	398.682880	1156.532226	-184.037996	397.447621	1142.006366	-444.729612	430.151838	1111.144966	-215.535405	298.003562	1233.811742	-261.837536	294.890951	1245.939947	-343.009262	339.216380	1070.576063	-149.180887	303.051832	1117.881579	-500.784931	375.724171	978.926748	-147.328222	409.257337	897.221162	-151.828190	404.444737	813.177131	-133.111126	437.000615	899.621346	-178.485187	394.387314	673.596236	-168.944048	367.437629	662.406813	-273.326298	347.083142	579.665061	-144.126239	320.110990	495.291036	-159.067109	261.930951	432.974485	-147.962593	329.558092	491.231183	-196.825681	188.717210	334.139811	-147.881816	201.840538	343.959252	-229.842472	290.400880	125.939236	-193.367646	209.890740	197.652928	-133.891159	232.900448	186.578494	-241.800280	415.356355	1036.352294	-518.052517	493.332692	997.796602	-519.932850	515.896439	1022.966735	-502.898874	542.119630	923.664628	-523.977609	616.021288	850.432315	-507.850926	619.522704	825.491719	-396.200357	566.827573	762.555441	-520.201300	520.004742	692.240597	-499.542195	440.783471	648.773179	-501.254465	534.597410	682.296997	-462.570946	344.617179	582.510435	-485.124771	360.023638	577.415418	-406.034022	259.816737	559.456252	-444.643392	521.224144	440.990697	-445.990950	415.117992	457.783168	-508.848163	-164.929611	858.263614	-315.416855	32.985996	82.321414	-515.304133	33.033247	82.288735	-115.121041	
1002	5.0100	802.112633	1182.281828	-175.508290	793.576172	1181.055152	-541.518309	814.308455	1245.019915	-367.654987	740.512336	1123.372308	-374.718455	613.616488	1029.744088	-55.191586	714.335212	882.576865	-129.275901	571.836845	1020.641840	-640.408033	698.904600	891.194214	-530.058319	255.348960	1200.883929	-308.441139	365.499010	1184.049105	-467.469098	398.594265	1158.889819	-184.017710	398.363403	1142.996518	-444.854819	429.724492	1112.996379	-215.076581	298.644770	1237.152368	-262.004886	295.855514	1248.635953	-343.504772	338.621496	1072.953657	-149.090633	303.811876	1119.034761	-500.440396	375.747443	980.913268	-147.854240	410.199965	899.584153	-152.591713	406.424922	815.468129	-133.928976	437.929992	902.348214	-179.105987	397.366418	675.640086	-169.503906	370.963537	664.709868	-274.096964	348.077445	582.347937	-145.070212	319.123813	498.679272	-160.006615	259.451418	437.852610	-149.152353	328.130274	494.596695	-198.225880	183.263590	340.766661	-148.958835	197.130380	350.092556	-230.946616	283.432385	131.538547	-192.976956	203.252375	204.077920	-134.491708	227.086200	191.245187	-241.942161	414.965849	1035.677119	-518.558343	492.202623	995.759582	-520.752507	515.249986	1020.513461	-503.753902	539.627774	920.746113	-524.829123	612.962620	846.204639	-507.802191	616.165010	820.930240	-397.501782	563.490256	756.618910	-521.256211	517.976073	685.547302	-500.162609	439.741214	640.439232	-501.704774	532.759487	676.317272	-463.024509	344.941681	573.528969	-484.693973	360.551324	568.539333	-405.765285	260.740767	546.958309	-444.356848	526.453528	439.047147	-446.287830	419.870699	451.467056	-509.264568	-164.897791	858.235311	-315.717996	32.958740	82.177758	-515.286327	33.028643	82.251990	-115.149273	
1003	5.0150	803.153927	1180.868469	-177.201154	792.214292	1179.377449	-543.420553	814.531389	1243.607623	-369.726887	739.931993	1122.427723	-376.307314	614.380901	1030.086561	-55.458134	714.311391	881.924460	-129.658484	570.002748	1019.604096	-641.291746	698.394617	891.463762	-530.908234	256.253309	1203.055894	-308.964697	366.453074	1184.598069	-467.467479	398.474150	1161.130968	-184.097192	399.246642	1143.657562	-445.110826	429.410852	1114.716151	-214.666966	299.332308	1240.268853	-262.405738	296.662309	1251.041694	-344.229164	338.187215	1075.263989	-149.058359	304.760318	1119.901713	-500.367133	376.259651	982.966530	-148.268275	411.557406	902.015184	-153.407406	408.872063	817.897622	-134.861641	439.254082	905.113847	-179.870296	400.919151	677.711332	-170.101075	375.198590	666.902287	-274.937360	349.777909	584.939360	-145.850820	318.755014	502.000942	-160.802556	257.242452	442.828852	-150.117972	327.604583	497.699645	-199.202438	178.513046	347.513088	-149.735259	193.634085	356.414804	-231.454126	276.618885	137.093304	-192.607813	197.042501	210.783400	-134.698584	221.546817	196.787923	-241.883056	414.547541	1034.693654	-519.158195	491.012125	993.207215	-521.575377	514.623941	1017.558538	-504.609166	536.938479	917.269847	-525.667582	608.784647	840.988900	-508.572184	612.609858	815.828929	-398.721086	559.944141	750.072907	-522.033841	515.731782	678.292874	-500.390424	438.500607	631.727699	-501.717550	530.806742	669.720554	-463.267210	345.409414	563.980235	-484.256886	361.274155	559.184494	-405.308210	261.835548	534.356375	-443.722102	531.752639	436.178463	-447.053195	424.331894	444.738609	-509.638985	-165.007963	858.138150	-315.767690	32.940763	82.076628	-515.326337	32.437324	82.719235	-115.241573	
1004	5.0200	804.177073	1179.555176	-178.868797	790.788740	1177.764729	-545.288988	814.410953	1242.051373	-371.788748	739.440325	1121.069201	-377.679181	615.038816	1030.351769	-55.608517	714.196999	881.736352	-129.658222	568.091121	1018.540085	-642.091257	697.877353	891.591203	-531.659039	257.126893	1204.924245	-309.693447	367.216785	1185.204725	-467.875703	398.298411	1163.129750	-184.255698	400.169285	1144.074884	-445.360530	428.952071	1116.205130	-214.555527	299.924412	1243.053248	-263.001133	297.422200	1253.335735	-345.156327	337.947264	1077.408552	-148.996785	305.786581	1120.536873	-500.320530	377.023093	984.957866	-148.780450	413.292215	904.430982	-154.292344	411.940955	820.282703	-135.820702	440.982014	908.062910	-180.610717	404.850832	679.967299	-170.709147	379.891670	669.089940	-275.850569	352.455180	587.478254	-146.491653	318.893909	505.445587	-161.531265	255.924164	447.902347	-150.828083	327.660353	500.776039	-199.977514	174.493644	354.528552	-150.104444	190.523807	363.066724	-231.590876	270.310303	142.983041	-192.359026	191.299135	217.645067	-134.996021	216.219617	203.083527	-241.999117	414.149885	1033.254764	-519.683537	489.711529	990.721573	-523.241348	513.903089	1014.232900	-505.527873	532.794087	913.277863	-528.105403	603.761091	834.557593	-510.611944	608.802932	810.346829	-399.794721	556.263034	743.112317	-522.541445	513.551913	670.597867	-500.274889	437.348615	622.472624	-501.444300	528.841898	662.692613	-463.193456	345.930891	554.168032	-483.803045	362.434310	549.479511	-404.661617	263.680310	521.605816	-442.763042	536.560293	432.429767	-448.075742	428.430299	437.542534	-509.851951	-164.981204	858.134900	-316.000543	32.901571	82.037838	-515.314870	32.444300	82.753337	-115.315665	
